PathFileType	4	(X/Y/Z)	C:\Users\dell\Documents\OpenSim\4.1\20210318\TRC_File\LX_20210318_static_0001.trc
DataRate	CameraRate	NumFrames	NumMarkers	Units	OrigDataRate	OrigDataStartFrame	OrigNumFrames
100.000000	100.000000	4	38	mm	100.000000	112	300
Frame#	Time	Sternum			R.Acromium			L.Acromium			R.Arm			L.Arm			R.Hand			L.Hand			R.ASIS			L.ASIS			V.Sacral			R.Thigh.Upper			R.Thigh.Front			R.Thigh.Rear			R.Knee.Lat			R.Knee.Med			R.Shank.Upper			R.Shank.Front			R.Shank.Rear			R.Ankle.Lat			R.Ankle.Med			R.Heel			R.Toe.Lat			R.Toe.Med			R.Toe.Tip			L.Thigh.Upper			L.Thigh.Front			L.Thigh.Rear			L.Knee.Lat			L.Knee.Med			L.Shank.Upper			L.Shank.Front			L.Shank.Rear			L.Ankle.Lat			L.Ankle.Med			L.Heel			L.Toe.Lat			L.Toe.Med			L.Toe.Tip			
		X1	Y1	Z1	X2	Y2	Z2	X3	Y3	Z3	X4	Y4	Z4	X5	Y5	Z5	X6	Y6	Z6	X7	Y7	Z7	X8	Y8	Z8	X9	Y9	Z9	X10	Y10	Z10	X11	Y11	Z11	X12	Y12	Z12	X13	Y13	Z13	X14	Y14	Z14	X15	Y15	Z15	X16	Y16	Z16	X17	Y17	Z17	X18	Y18	Z18	X19	Y19	Z19	X20	Y20	Z20	X21	Y21	Z21	X22	Y22	Z22	X23	Y23	Z23	X24	Y24	Z24	X25	Y25	Z25	X26	Y26	Z26	X27	Y27	Z27	X28	Y28	Z28	X29	Y29	Z29	X30	Y30	Z30	X31	Y31	Z31	X32	Y32	Z32	X33	Y33	Z33	X34	Y34	Z34	X35	Y35	Z35	X36	Y36	Z36	X37	Y37	Z37	X38	Y38	Z38	

113	1.12	-105.505012512207	1295.477783203125	-7.394925117492676	-232.5411834716797	1449.977172851563	122.4150161743164	-231.1531372070313	1459.847290039063	-138.6730041503906	-305.4732971191406	1424.551391601563	427.9449157714844	-285.0638427734375	1429.707275390625	-450.8470764160156	-298.8453674316406	1421.075073242188	679.1436157226563	-250.9819946289063	1413.0576171875	-683.42041015625	-134.7707672119141	972.9404907226563	128.6880340576172	-119.0000991821289	961.1466674804688	-102.8637390136719	-314.2988586425781	964.0701293945313	-7.111119747161865	-216.9651489257813	646.1707153320313	167.6991424560547	-154.3657379150391	617.0383911132813	98.25071716308594	-223.61328125	554.2881469726563	165.5960998535156	-247.7515411376953	465.181640625	168.5080718994141	-251.1574859619141	461.5897216796875	38.89969253540039	-255.5242309570313	408.3364868164063	168.4600219726563	-206.6725921630859	357.9863586425781	102.7162246704102	-273.0014953613281	289.5084228515625	174.6151428222656	-292.9316101074219	55.93066024780273	154.7046966552734	-276.8865661621094	81.71417999267578	70.10103607177734	-331.1073303222656	25.35657119750977	97.47415924072266	-175.2362823486328	21.1290168762207	199.2822875976563	-122.6618118286133	20.30935287475586	108.4699020385742	-82.94650268554688	25.05239105224609	142.5727233886719	-190.5021362304688	667.4758911132813	-164.3160552978516	-147.4660797119141	627.5703735351563	-95.90177917480469	-196.5335235595703	570.0747680664063	-161.8853302001953	-217.8349761962891	463.2959289550781	-164.3909606933594	-273.5519714355469	457.8139953613281	-45.0066032409668	-225.1497802734375	402.8100891113281	-165.0832061767578	-204.1236724853516	357.286376953125	-98.73556518554688	-241.9998474121094	297.4602355957031	-168.2309265136719	-288.4220886230469	53.59212875366211	-150.9790802001953	-273.6603088378906	75.88341522216797	-62.55915069580078	-339.2340698242188	24.67483139038086	-94.14581298828125	-183.6011199951172	20.80580902099609	-188.5176544189453	-131.6091003417969	22.63787841796875	-102.6814575195313	-92.29634094238281	24.33826065063477	-140.1663665771484	
114	1.13	-105.6071472167969	1295.4931640625	-7.389974117279053	-232.6640472412109	1450.000244140625	122.3613128662109	-231.2760162353516	1459.83935546875	-138.6644744873047	-305.5413513183594	1424.67822265625	427.931396484375	-285.1769409179688	1429.782470703125	-450.8441162109375	-298.8636474609375	1421.283447265625	679.0975952148438	-251.0389404296875	1413.158447265625	-683.4268188476563	-134.8150024414063	972.9766235351563	128.689697265625	-119.0302810668945	961.1549072265625	-102.8554763793945	-314.3396911621094	964.065673828125	-7.134962558746338	-217.0011901855469	646.160888671875	167.7034912109375	-154.4403381347656	617.046875	98.26305389404297	-223.6083679199219	554.2848510742188	165.6113739013672	-247.7624359130859	465.1903381347656	168.5200042724609	-251.1668395996094	461.579345703125	38.89704895019531	-255.5270233154297	408.3351135253906	168.4621124267578	-206.6895904541016	357.9718017578125	102.712646484375	-273.0204772949219	289.5031127929688	174.6067504882813	-292.9280090332031	55.91695785522461	154.6939392089844	-276.8977661132813	81.72545623779297	70.07651519775391	-331.0956726074219	25.36826515197754	97.47579956054688	-175.2346801757813	21.13121032714844	199.2834625244141	-122.6634292602539	20.3223705291748	108.4701156616211	-82.96201324462891	25.05424118041992	142.5775604248047	-190.4846038818359	667.4866333007813	-164.3184356689453	-147.4638519287109	627.5750122070313	-95.89323425292969	-196.4781036376953	570.078125	-161.9046325683594	-217.8091125488281	463.3086853027344	-164.3987731933594	-273.5509033203125	457.81982421875	-45.00363159179688	-225.1468200683594	402.8023986816406	-165.0780334472656	-204.1247253417969	357.274658203125	-98.74520874023438	-241.9970245361328	297.44384765625	-168.2248077392578	-288.4178771972656	53.59177017211914	-150.9754486083984	-273.6641845703125	75.89971160888672	-62.55651092529297	-339.2396240234375	24.65525245666504	-94.17127990722656	-183.5987548828125	20.80786514282227	-188.5250091552734	-131.6102142333984	22.63696098327637	-102.6820373535156	-92.30349731445313	24.34538841247559	-140.1757202148438	
115	1.14	-105.7209930419922	1295.502563476563	-7.388381958007813	-232.7975463867188	1450.013793945313	122.3209762573242	-231.4015350341797	1459.839111328125	-138.6492462158203	-305.6272583007813	1424.771728515625	427.9325561523438	-285.2906799316406	1429.864990234375	-450.8218078613281	-298.8760986328125	1421.449829101563	679.0987548828125	-251.1229248046875	1413.253173828125	-683.418701171875	-134.871826171875	973.0020141601563	128.6929473876953	-119.0629425048828	961.17138671875	-102.8440322875977	-314.3689575195313	964.0430908203125	-7.133773326873779	-217.0086212158203	646.1810302734375	167.7305297851563	-154.4692687988281	617.0519409179688	98.26360321044922	-223.6281585693359	554.2801513671875	165.6363067626953	-247.7870330810547	465.1832885742188	168.5377197265625	-251.173095703125	461.5871887207031	38.90054702758789	-255.5411529541016	408.334716796875	168.4723205566406	-206.6855163574219	357.9859619140625	102.7229614257813	-273.0233154296875	289.5085754394531	174.6218414306641	-292.9290771484375	55.91799545288086	154.6950225830078	-276.8860473632813	81.71478271484375	70.09622955322266	-331.0953369140625	25.36748695373535	97.47420501708984	-175.2387847900391	21.13344573974609	199.2788848876953	-122.6511993408203	20.31587409973145	108.4700317382813	-82.96217346191406	25.05094337463379	142.5702056884766	-190.4803619384766	667.4738159179688	-164.3179168701172	-147.4624176025391	627.5802001953125	-95.87733459472656	-196.4586791992188	570.0784912109375	-161.9302520751953	-217.7823181152344	463.2861022949219	-164.4029541015625	-273.5561828613281	457.8157043457031	-45.00492095947266	-225.1168518066406	402.8042602539063	-165.0950012207031	-204.1284332275391	357.2705383300781	-98.72322082519531	-241.9892578125	297.4414672851563	-168.2361602783203	-288.4162292480469	53.58941650390625	-150.9870758056641	-273.6628723144531	75.88375091552734	-62.55549621582031	-339.2433166503906	24.65974044799805	-94.17330169677734	-183.6010131835938	20.81836128234863	-188.5207977294922	-131.6116943359375	22.63346862792969	-102.6780776977539	-92.31015014648438	24.33979606628418	-140.1692504882813	
116	1.15	-105.8392333984375	1295.5126953125	-7.382608890533447	-232.9463195800781	1450.042724609375	122.2837677001953	-231.5219879150391	1459.838256835938	-138.6396789550781	-305.6935424804688	1424.884887695313	427.9154357910156	-285.4326782226563	1429.90869140625	-450.7992553710938	-298.8887329101563	1421.620727539063	679.0759887695313	-251.2574462890625	1413.341430664063	-683.4063110351563	-134.9464874267578	973.0348510742188	128.6925506591797	-119.096565246582	961.1732177734375	-102.837760925293	-314.419921875	964.0468139648438	-7.131691455841064	-217.0360260009766	646.165771484375	167.7382354736328	-154.4836883544922	617.0751953125	98.27459716796875	-223.6318359375	554.2748413085938	165.6506652832031	-247.7895355224609	465.1748352050781	168.5417175292969	-251.1755218505859	461.5902404785156	38.90400314331055	-255.5549926757813	408.3273620605469	168.4737854003906	-206.6916046142578	357.9869384765625	102.7297515869141	-273.03955078125	289.487060546875	174.6157836914063	-292.9306030273438	55.90782928466797	154.6949615478516	-276.903076171875	81.728271484375	70.08229827880859	-331.094482421875	25.35883903503418	97.48046112060547	-175.2422637939453	21.12669944763184	199.2913055419922	-122.6612701416016	20.30397987365723	108.4834747314453	-82.96259307861328	25.05512046813965	142.5759582519531	-190.4871215820313	667.489501953125	-164.3042144775391	-147.4634094238281	627.586669921875	-95.862548828125	-196.4250183105469	570.0695190429688	-161.9485015869141	-217.76318359375	463.2950134277344	-164.4132995605469	-273.5595092773438	457.8084411621094	-44.99545288085938	-225.1207427978516	402.78564453125	-165.0783843994141	-204.1156768798828	357.2763977050781	-98.72324371337891	-241.9887084960938	297.4305114746094	-168.2252960205078	-288.4344787597656	53.58641052246094	-150.9792327880859	-273.6716003417969	75.87474822998047	-62.54975509643555	-339.2442016601563	24.66655158996582	-94.15686798095703	-183.6114501953125	20.82375526428223	-188.5024261474609	-131.6100921630859	22.62416076660156	-102.6731872558594	-92.29859924316406	24.34162330627441	-140.165283203125	
